<?xml version="1.0" encoding="UTF-8"?>
<svg id="Lag_1" data-name="Lag 1" xmlns="http://www.w3.org/2000/svg" viewBox="0 0 877 534.17">
  <defs>
    <style>
      .cls-1 {
        fill: none;
        stroke: #ff3232;
        stroke-linecap: round;
        stroke-linejoin: round;
        stroke-width: 5px;
      }
    </style>
  </defs>
  <path class="cls-1" d="M848.95,503.26c-26.25,3.46-50.82-8.5-76.65-8.35-6.92,.04-9.75-4.99-12.57-8.84-19.74-26.97-36.41-55.91-52.59-85.1-4.46-8.05-4.47-16.02,2.45-24.26,9.11-10.85,13.38-24.85,16.86-38.23,4.11-15.78-7.22-37.38-22.39-45.13-14.4-7.35-28.48-15.02-45.19-18.02-9.66-1.73-16.74,2.41-24.05,4.44-7.65,2.13-9.18,1.8-13.42-4.8-6.06-9.44-10.34-21.54-23.67-24.6-2.21-.51-4.49-3.26-5.62-5.53-11.66-23.43-29.32-42.44-47.31-60.63-14.17-14.34-30.84-26.67-50.79-32.86-2.52-.78-5.73-2.28-6.77-3.28-26.78-25.72-56.56-48.29-71.72-84.68C398.1,21.57,349.01-3.08,303.84,3.58c-23.5,3.47-50.95,31-53.36,56.84-.98,10.47-6.2,17.8-10.85,25.29-16.58,26.71-31.08,54.42-45.44,82.36-14.8,28.81-28.26,58.41-44.4,86.34-9.08,15.72-25.13,27.57-37.9,41.31-19.26,20.72-37.79,41.86-47.65,68.54-8.19,22.16-17.52,43.76-27.41,65.12-9.7,20.93-17.44,42.82-29.73,62.49-7.98,12.78-5.91,20.27,8.62,25.43,7.74,2.75,15.96,5.09,24.09,5.61,24.09,1.55,48.25,2.03,72.38,3.1,8.61,.38,15.35-2.47,21.19-10.31-19-10.13-37.35-19.41-55.2-29.58-18.7-10.65-19.75-25.59-10.16-45.39,16.11-33.24,42.5-58.77,64.01-87.95,16.38-22.23,31.55-45.7,52.77-63.59,18.02-15.19,34.77-31.53,50.75-48.65,26.51-28.41,52.88-57.02,77.79-86.82,7.66-9.17,16.34-16.84,25.05-27.64,8.01,10.03,16.35,16.23,20.13,29.18,6.6,22.59,13.06,46.08,34.46,61.63,12.39,9,24.9,19.31,34.78,30.32,9.06,10.09,16.52,23.5,23.6,36.08,8.53,15.15,21.39,20.85,38.4,21.5,21.04,.8,40.84-4.81,61.09-8.56,6.42-1.19,13.01-1.29,18.63,5.28,11.01,12.88,13.1,27.6,5.7,42.88-2.97,6.13-5.58,13.11,5.27,17.35,8.51,3.33,17.52,8.61,21.26,18.1,1.97,5.01,5.29,4.39,8.72,4.12,25.23-1.99,40.67,13.64,53.7,31.47,13.81,18.89,30.9,34.43,47.16,50.86,19.31,19.5,41.6,35.89,59.59,56.81,6.28,7.3,14.96,8.8,24.09,8.55,26.5-.7,53-4.49,79.49,0l-55.88-15.7,30.33-12.69Z"/>
</svg>