<?xml version="1.0" encoding="UTF-8"?>
<svg id="Lag_1" data-name="Lag 1" xmlns="http://www.w3.org/2000/svg" viewBox="0 0 877.05 179.05">
  <defs>
    <style>
      .cls-1 {
        fill: none;
        stroke: #ff3232;
        stroke-linecap: round;
        stroke-linejoin: round;
        stroke-width: 5px;
      }
    </style>
  </defs>
  <path class="cls-1" d="M210.88,160.21c1.79-.86,3.15-2.22,5.46-2.48,6.04-.66,12.07-1.68,17.98-3.07,6.72-1.59,13.6-3.38,20.33-2.81,9.05,.77,15.35-6.17,17.29-15.09,1.87-8.57,1.2-17.2,1.59-25.82,.21-4.65-1.32-7.21-5.49-9.53-9.37-5.22-17.7-5.4-27.61-.17-11.64,6.14-24.53,7.7-37.41,1.94-5.9-2.64-9.52-7.69-14.04-11.81-6.59-6.01-11.78-14.45-21.91-14.73-8.57-.23-16.46-1.25-22.74-7.88-1.48-1.56-4.02-2.4-6.16-1.56-6.08,2.4-12.78,4.17-17.76,8.07-3.62,2.83-2.12,9.06-1.65,13.74,.28,2.82-1.71,4.49-1.93,7.04-.25,2.91-2.81,4.33-6.06,3.95-11.51-1.35-22.21-.43-28.56,10.77-1.9,.59-2.62-.54-3.51-1.4-6.32-6.11-13.27-10.66-22.68-9.45-1.25,.16-2.59-.23-3.94-.57-9.29-2.37-17.7-7.39-26.66-9.93C5.5,83.77-.62,67.92,3.92,49.22,8.34,30.98,21.27,18.28,37.34,9.39,54.32,0,71.07-.44,87.51,12.14c5.16,3.95,7.83,9.87,15.14,12.77,8.55,3.39,16.26,4.72,23.65,1.3,13.98-6.46,28.69-10.53,43.2-15.18,0,0,30.32-9.21,79.88-3.68,4.2,2.01,9.25,4.32,14.7,3.54,9.19-1.31,17.93,1.68,26.54,3.99,19.39,5.2,38.9,9.81,58.72,13"/>
  <path class="cls-1" d="M834.97,168.03c5.19,6.61,12.78,7.87,20.34,8.47,5.28,.42,8.64-1.7,11.35-7.5,3.25-6.97,4.21-14.46,7.02-21.46,1.41-3.51,1.11-8.56-.96-13.23-5.08-11.44-9.08-23.37-13.51-35.1-2.98-7.9-2.18-16.65-6.77-24.4-3.44-5.81-7.06-7.19-12.77-5.28-3.5,1.17-6.85,1.83-9.36-1.62-2.44-3.35-4.81-2.02-7.9-.87-8.9,3.3-18.52,3.93-27.42,7.72-6.2,2.64-12.29-2.42-18.62-3.32-9.42-1.34-18.78-3.96-28.2-5.91-6.57-1.36-11.97-5.59-18.72-7.24-21.98-5.37-44.24-6.24-66.53-4.95-12.52,.73-24.79,5.24-37.55,4.38-20.78-1.41-41.54-2.52-61.85-8.33-13.43-3.85-27.44-5.61-41.38-7.34-12.6-1.56-24.6-5.84-36.78-9.24-9.79-2.73-16.84-9.73-24.03-15.93-9.76-8.41-21.03-12.7-33.07-13.49-11.73-.77-23.23,3.47-33.5,9.23-6.67,3.74-12.9,5.28-20.47,9.95-13.91,7.34-22.63,5.08-24.98,5.34"/>
  <path class="cls-1" d="M834.97,168.03c5.99-6.53,9.96-19.69,3.8-25.69-12.98-12.62-25.39-26.41-42.95-32.83-17.08-6.24-34.42-9.98-53.19-6.74-14.84,2.56-30.16,2.73-45.28,3.75-12.27,.83-24.69,2.57-36.73,.96-16.7-2.23-31.4,4.52-46.98,7.28-7.21,1.28-14.57,2.03-21.89,2.34-9.37,.39-18.78,.45-28.15,.01-14.15-.67-28.15,1.44-42.22,1.99-18.04,.7-36.01-.48-53.97-.74-11.46-.17-22.94-4.47-33.54-9.19-10.72-4.78-21.05-1.36-31.36-.34-17.07,1.69-33.78,4.51-50.99-.57-5.57-1.65-12.33-2.02-18.64-2.06-3.93-.02-7.75,.12-11.81-1.27-6.59-2.25-8.8,.61-10.22,7.56-3.79,18.46-5.58,37.39-13.68,54.89-2.15,4.64-4.15,6.24-8.86,6.2-18.25-.15-36.57,.89-54.72-.45-9.64-.71-19.41-.12-28.96-1.96,0,0-9.92-.43-10.95-10.17,5.28-1.49,10.86,3.02,16.03-.78"/>
</svg>