<?xml version="1.0" encoding="UTF-8"?>
<svg id="Lag_1" data-name="Lag 1" xmlns="http://www.w3.org/2000/svg" viewBox="0 0 290.41 776.08">
  <defs>
    <style>
      .cls-1 {
        fill: none;
        stroke: #ff3232;
        stroke-linecap: round;
        stroke-linejoin: round;
        stroke-width: 5px;
      }
    </style>
  </defs>
  <path class="cls-1" d="M149.31,119c-.42-7.14,6.04-17.08,13.03-18.36,9.59-1.75,19.23-2.01,28.04,3.76,1.72,1.13,2.66,2.1,3.57,4.03,4.29,9.14,5.56,19.16,8.66,28.63,1.23,3.76,.28,8.27,.13,12.43-.03,.85-.88,2.35-1.44,2.4-4.67,.37-4.32,4.03-5.02,7.1-.32,1.38-.67,2.91-1.52,3.97-7.16,8.92-5.8,19.16-3.67,28.98,1.04,4.82,4.34,9.48,10.19,11.17,2.73,.79,5.37,2.15,7.62,4.3,2.06,1.98,5.2,1.83,6.83-.47,6.94-9.8,15.04-18.65,22.62-27.92,5.11-6.25,8.21-13.35,10.53-21.01,3.25-10.74,7-21.33,10.4-32.03,1.28-4.04,.95-7.84-2.45-11-11.54-10.73-24.61-19.21-38.51-26.49-11.52-6.03-23.54-10.94-35.51-15.98-4.19-1.77-6.96-5.84-11.42-7.1-13.54,10.19-29.12,16.84-42.99,26.22-13.73,9.28-26.76,19.62-37.55,32.4-2.9,3.44-4.05,7.46-2.06,11.97,5.63,12.75,10.8,25.68,15.13,38.96,1.01,3.09,3.26,5.79,5.86,8.07,9.25,8.1,18.45,16.29,25.48,26.5,2.52,3.65,5.57,1.42,7.42,.27,2.93-1.82,5.65-3.59,9.1-4.42,1.92-.46,3.25-2.35,4.05-4.38,1.98-5.01,2.94-10.28,3.89-15.52,.56-3.08-1.37-5.97-1.87-8.99-.99-5.98-1.8-11.95-4.47-17.53-1.02-2.13-1.66-3.87-4.58-3.52-3.49,.42-4.17-1.76-5.21-4.87-1.95-5.85,1.42-10.42,2.08-15.59,.69-5.41,1.64-10.61,4.13-15.48"/>
  <path class="cls-1" d="M176.31,2.5c-1.48,4.23,.34,8.43,.78,12.47,.86,7.86,1.25,15.88,3.7,23.54,1.75,5.47,3.1,11.09,5.08,16.47,2.58,7.04,9.56,8.63,15.49,10.34,19.13,5.51,38.27,10.92,56.44,19.2,8.61,3.93,17.39,7.56,25.49,12.52,5.1,3.12,5.53,4.35,3.48,9.95-2.38,6.49-2.23,13.4-3.84,20.05-5.64,23.3-12.14,46.2-23.49,67.54-4.3,8.08-7.29,16.87-10.53,25.47-1,2.64-2.49,4.76-4.06,6.99-3.76,5.37-5.07,11.69-5.95,17.99-.77,5.52-1.84,11-4.21,15.93-3.63,7.52-3.59,15.8-5.86,23.56-2.72,9.31-3.9,18.98-4.8,28.52-1.56,16.6-.91,33.17,7.26,48.49,5.23,9.81,7.87,20.28,7.56,31.49-.19,6.89,1.42,13.81,1.54,20.51,.22,12.11,1.33,24.28-.36,36.52-1.8,13.03-6.86,24.98-10.24,37.46-5.62,20.76-11.76,41.37-16.15,62.47-2.56,12.29-5.05,24.47-6.13,37.01-.32,3.67,.66,7.07,.24,10.52-1.19,9.82-1.02,19.7-2.75,29.54-3.47,19.72-9.59,38.7-14.36,58.05-1.44,5.84-5.1,10.05-6.9,15.39-2.04,6.05-3.26,12.15-2.92,18.52,.23,4.32,.25,8.73-2.13,12.43-1.37,2.13-1.22,4.31-.71,6.02,.76,2.5,1.54,4.9,1.98,7.53,.35,2.1,1.69,4.04,3.75,5.65,4.73,3.69,9.82,7.33,11.33,13.79-5.14,2.07-8.52,6.48-13.69,8.23-2.85,.96-4.08,1.36-4.74-2.11-.15-.8-.34-3.26-2.81-3.1-2.37,.15-1.55,1.82-2.08,3.03-1.06,2.41-3.22,3.45-5.91,3.03-2.63-.41-4.68-2.06-4.87-4.5-.26-3.35-1.51-6.52-1.21-10,.57-6.74-1.94-13.39-1.7-19.99,.4-11,.84-22.28,7.29-32,2.33-3.51,2.38-7.67,3.41-11.53,.92-3.44-1.84-5.82-3.41-8.5,2.32-2.93,2.39-6.38,2.57-9.97,.33-6.5,3-12.74,1.14-19.57-.65-2.39,1.75-5.21,.96-8.48-.83-3.47-.12-7.29-.21-10.95-.09-3.66-.22-7.3,2.43-10.52-4.54-5.09-6.96-10.31-6.24-17.52,.55-5.51-5.12-9.56-7.7-14.45-.59-1.13-2.04-1.89-2.4-3.04-3.92-12.27-13.16-20.32-23.72-25.66-13.02-6.58-26.41-12.59-40.73-16.7-14.09-4.04-28.5-7.47-42.08-13.2-6.48-2.74-13.4-3.49-20.02-5.46-7.22-2.15-14.17-5.13-19.97-10.02-8.12-6.84-9.09-20.84-2.57-29.46,4.3-5.69,9.3-10.74,14.58-15.42,19.86-17.63,40.4-34.42,62.98-48.5,5.74-3.58,11.98-6.37,17.96-9.57,6.38-3.41,12.19-7.52,16.54-13.46,.88-1.21,2.14-2.53,3.49-2.94,5.12-1.55,3.63-4.19,1.26-7.39,4.77-5.46,5.89-12.05,5.26-19.2-.58-6.55,3.4-11.99,5.2-17.92,2.04-6.74,3.09-13,1.99-20.11-1.02-6.57-1.27-13.31-2.14-19.98-1.34-10.27-4.55-20.06-7.28-29.94-1.61-5.83-2.21-12.32-6.82-17.05,.2-8.39-4.72-15.47-6.04-23.49-.94-5.74-3.71-10.75-6.96-15.51-5.96-8.75-8.95-19.02-14.44-28.04-5.73-9.43-11.49-18.93-15.03-29.47-4.05-12.09-9.09-23.85-11.64-36.47-1.44-7.11-4.03-13.99-5.83-21.04-.62-2.43,.13-4.59,2.35-6.57,5.87-5.22,12.55-9.29,19.16-13.27,14.56-8.78,29.78-16.43,45.45-23.05,8.13-3.43,16.36-6.49,24.02-10.99,3.26-1.91,5.63-4.27,6.9-7.62,3.94-10.39,7.78-20.77,9.21-31.96,.69-5.46,3.24-10.67,4.79-16.03,.54-1.85,1.82-1.43,3.04-1.49"/>
  <path class="cls-1" d="M163.31,444.5c-31.24,13.71-57.69,35.68-87.95,51.1-2.3,1.17-3.89,3.74-5.92,5.76,2.28,4.12,6.63,4.37,9.92,6.03,9.8,4.95,18.4,11.78,27.8,17.35,7.01,4.15,14.7,6.64,21.65,10.75,4.23,2.51,7.83,5.79,12.91,7.28,5.18,1.52,10.33,3.4,15.6,4.63,3.93,.92,7.87-1.54,11.98-.93,2.01,.3,4.17-.34,5.8,1.3,2.03-2.04,2.57-4.54,2.6-6.76,.15-11.42,2.27-22.66,3.34-33.98,.89-9.38,1.03-18.74,.52-28.01-.45-8.17-.68-16.61-5.61-24.11-3.18-4.83-6.32-8.99-12.15-10.4"/>
</svg>