<?xml version="1.0" encoding="UTF-8"?>
<svg id="Lag_1" data-name="Lag 1" xmlns="http://www.w3.org/2000/svg" viewBox="0 0 907 783.51">
  <defs>
    <style>
      .cls-1 {
        fill: none;
        stroke: #ff3232;
        stroke-linecap: round;
        stroke-linejoin: round;
        stroke-width: 5px;
      }
    </style>
  </defs>
  <path class="cls-1" d="M5,122.41c.79,4.56,3.44,5.7,8,5.64,10-.12,19.94,2.24,30,1.32,2.56-.23,3.59,1.95,4.88,3.16,2.69,2.51,5.49,3,8.6,1.81,3.19-1.22,6.55-.65,8.91,.75,4.01,2.39,8.59,2.34,12.71,4.09,1.96,.83,4.82,.55,7.47-.65,6.74-3.08,14.09-4.99,21.4-3.45,6.28,1.33,12.56,2.86,18.65,5.57,7.55,3.35,15.9,4.89,23.89,7.25,7.84,2.31,15.69,4.6,23.47,7.08,.89,.28,1.7,.41,2.53,.39,9.76-.2,19.33,1.88,28.97,2.8,13.29,1.28,26.78,2.93,39.45,7.43,6.26,2.23,12.21,5.57,18.57,7.82,11.53,4.08,23.05,8.21,34.5,12.51,8.15,3.06,16.68,4.67,24.96,7.13,10.56,3.14,21.61,4.19,31.96,7.6,8.45,2.78,15.33,8.73,20.15,16.7,2.54,4.19-.31,7.67-1.3,10.97-2.94,9.77-3.02,19.67-2.63,29.57,.32,8.19,3.52,15.67,7.19,23.09,3.98,8.05,5.49,17.1,7.1,25.93,1.72,9.49,2.73,19.1,5,28.5,.9,3.72,1.24,7.58,1.12,11.48-.18,5.83,.15,11.67-.09,17.5-.51,12.27,.71,24.4,2.52,36.51,.69,4.63,1.11,9.31,1.63,13.75-9.45,3.05-18.28,5.91-27.11,8.75-8.33,2.68-16.75,5.1-24.97,8.07-7.54,2.72-15.16,5.21-22.64,8.14-7.3,2.86-14.87,5.37-22.41,7.72-7.05,2.2-13.87,5.04-20.91,7.28-9.93,3.17-19.53,7.51-29.04,11.86-13.65,6.24-27.51,12.13-39.55,21.41-9.41,7.25-12.27,17.72-14.46,28.53-2.73,13.48,.27,27,.32,40.49,.02,4.61-.65,9.99,2.12,14.52,.42,.68,.56,1.66,.51,2.48-.83,12.84-.44,25.66-.06,38.5,.38,12.82-.42,25.69,.21,38.49,.86,17.67,1.16,35.34,.74,53-.22,9.56-2.94,19.21-10.56,25.26-8,6.34-17.54,10.74-26.81,15.23-4.29,2.08-8.99,3.51-12.92,6.13-6.55,4.36-14.34,5.65-21.04,9.45-1.09,.62-2.08,.49-3.03,.38-2.8-.32-3.92,1.51-4.43,3.58-.55,2.22,.35,3.87,2.91,4.52,5.33,1.34,10.15,4.66,16.01,3.99,1.65-.19,3.38-.29,4.99,.02,6.73,1.28,12.92-1.96,19.5-2.23,4.13-.17,8.78-.61,12.38-2.11,6.94-2.9,13.83-.73,20.61-1.76,4.8-.73,8.86,1.91,13.49,2.25,10.02,.74,19.97,2.63,29.51-2.21,.73-.37,1.38-.94,2-1.5,.44-.39,.78-.91,1.34-1.58-2.87-1.19-3.19-3.47-2.81-5.9,.97-6.15,.73-12.37,.31-18.49-.29-4.23-2.34-8.31-3.29-12.52-1.76-7.72-4.07-15.73-2.3-23.44,2.18-9.5,.04-19.18,2.66-28.58,2.32-8.36,4.28-16.9,5.47-25.49,1.32-9.54,3.18-19.01,4.96-28.42,1.48-7.83,1.94-15.83,3.86-23.64,1.03-4.2,1.13-9.18-.9-14.04-1.56-3.74-.92-8.67-.53-12.86,.53-5.72,0-11.36,.19-17.03,.26-7.93,6.72-14.79,14.56-15.55,11.69-1.13,23.31-3.1,35.01-3.8,10.63-.64,21.03-2.67,31.46-4.33,9.82-1.56,19.44-4.49,29.1-7.03,6.86-1.8,13.69-4.17,20.9-4.98,4.02-.45,7.94-2.36,12-3.39,10.23-2.59,20.53-5.08,30.48-8.55,12.56-4.37,25.15-8.72,37.11-14.74,5.84-2.93,12.04-5.21,18.02-7.95,4.02-1.84,7.53,1.38,10.96,3.75,13.9,9.65,27.72,19.44,42.02,28.47,18.42,11.62,33.99,26.56,49.91,41.12,11.13,10.19,21.71,21.01,33.13,30.85,8.53,7.35,18.22,13.27,27.81,19.25,6.92,4.32,12.8,10.31,19.65,14.76,8.84,5.74,16.69,12.5,24.62,19.39,6.96,6.04,13.6,12.59,20.97,18,9.8,7.19,18.38,15.72,27.61,23.49,7.69,6.47,15.28,13.3,22.32,20.64,5.84,6.08,10.76,12.89,16.23,19.24,4.41,5.13,2.91,12.02,2.18,18.35-.77,6.72-4.97,11.81-8.66,16.89-4.49,6.19-8.59,12.48-11.35,19.61,4.95,4.43,17.8,6.27,30.95,2.8,10.22-2.7,22.13-1.88,29.73-11.68-4.01-7.69-4.39-16.24-7.11-24.14-1.79-5.19-2.26-10.84-5.58-15.47-1.35-1.88-.25-3.99-.86-6.05-1.86-6.36-6.01-11.34-9.76-16.37-9.27-12.43-18.75-24.67-27.6-37.44-6.09-8.8-12.26-17.63-18.8-26.14-7.97-10.36-15.76-20.85-23.75-31.19-5.89-7.63-11.33-15.79-16.99-23.64-5.66-7.85-13.33-14.26-20.26-21.17-10.43-10.4-21.54-20.19-31.26-31.22-5.2-5.9-9.9-12.46-14.74-18.79-11.12-14.54-22.47-28.9-33.42-43.56-4.75-6.36-8.64-13.35-13.09-19.93-8.59-12.72-17.41-25.28-25.94-38.04-4.64-6.94-10.06-13.21-15.37-19.61-3.09-3.73-4.66-8.79-6.64-13.37-5.92-13.71-12.16-27.35-20.32-39.8-3.47-5.29-7.43-10.52-11.04-15.81-4.39-6.44-5.88-14.35-7.5-21.92-.53-2.48-1.69-4.73-1.89-7.45-.45-6.24,1.68-11.85,3.35-17.47,2.87-9.69,5.91-19.35,5.24-29.53-.38-5.83,1.55-10.7,4.16-15.49,4.04-7.4,8.38-14.64,12.44-22.03,3.72-6.75,9.49-10.76,16.51-13.53,11.42-4.51,23.36-3.35,35-2.71,12.78,.71,25.52,.98,37.96-1.5,8.77-1.75,17.52-4.39,26.19-6.72,8.28-2.22,15.41-6.55,23.37-8.98,5.67-1.73,11.46-3.1,17.48-3.06,15.22,.1,30.38-1.15,45.48-2.69,7.8-.8,15.41-3.84,23.09-5.49,10.74-2.31,21.24-5.43,31.89-8,7.31-1.76,14.46-3.62,22.04-3.92,4.97-.2,9.65,.68,13.96,2.69,8.22,3.84,16.2,3.89,24.58,.51,3.93-1.58,8.37-1.87,12.44-3.15,8.79-2.76,18.19-3.52,25.75-10.18,2.74-2.41,7.17-3.77,10.82-5.65,1.79-.92,2.91-2.11,3.94-3.62"/>
  <path class="cls-1" d="M904.5,133.91c-2.91,1.8-5.92,.95-9.01,.55-5.7-.74-11.32,.87-16.99,.88-4.67,.01-9.34-.56-14-.97-.86-.08-2.08-.39-2.44-1-2.8-4.84-6.88-2.15-9.43-.72-3.17,1.78-6.11,2.78-9.64,2.77-17-.04-34.12-1.28-50.96,.38-13.23,1.31-26.36,1.28-39.54,1.54-12.99,.26-26.03,.58-38.99-.14-7.97-.44-15.87-.14-23.46,1.45-7,1.47-14.02,2.9-21.04,4.3-4.02,.8-8.02,.11-12.01,.45-7.5,.64-15.22,.42-22.44,2.22-9.16,2.28-18.43,3.82-27.51,2.48-8.85-1.31-17.7-.44-26.64-2.2-9.42-1.85-18.87-5.21-28.4-5.21-12,0-23.99-1.82-36.01-.38-1.85,.22-3.67,.53-4.93,1.65-2.23,1.97-4.45,2.23-6.5,.36-1.51-1.37-3.04-.72-4.56-.92-8.64-1.13-15.2-5.05-19.64-12.93-2.37-4.21-4.45-8.18-3.83-13.07,.19-1.5-1.2-3.84,1.96-4.07,.64-.05,1.12-.97,1.02-1.93-.63-6.1,4.02-8.69,8.02-11.44,5.09-3.49,8.44-7.97,9.44-14.06,1.61-9.76,3.01-19.52,2.56-29.5-.83-18.36-8.27-32.59-23.38-43.72-12.17-8.97-24.96-8.99-38.67-7.35-6.39,.77-12.68,1.9-18.99,3.07-9.38,1.74-17.29,8.7-15.04,19.51,.55,2.66-1.12,4.97-2.53,6.94-3.7,5.15-3.23,11.76-6.37,17.09-1.14,1.93,1.94,2.54,2,4.46,.17,5.59,.2,11.34-3.22,15.88-2.08,2.77-3.23,5.97-5.36,8.63-.13,1.86,1.53,3.02,2.57,3.35,3.25,1.02,3.61,3.21,4.1,6.12,.55,3.27,1.99,6.45,3.41,9.5,1.52,3.26,1.67,6.64,1.39,10.02-.54,6.42,2.9,10.36,9.55,10.5,8.09,.18,8.64,.3,13.59,3.05-1.02,4.59-.54,9.28-.55,13.95-.01,2.3-.54,3.75-3.01,4.59-2.8,.95-5.35,2.61-8.03,3.9-3.63,1.75-7.44,2.57-11.4,3.44-6.46,1.42-11.47-.85-17.13-2.32-6.98-1.81-14.18-2.42-21.47-2.18-8.57,.29-17.01,.82-25.56,2.14-8.03,1.24-16.47,2.84-24.99,.62-4.56-1.19-9.67-.87-14.45-.95-8.56-.14-16.37-3.23-24.43-5.04-6.03-1.35-12.09-3.3-18.07-5.21-9.95-3.17-19.99-6.29-30.08-8.64-8.59-2-17.33-4.13-26.4-4.62-9.18-.49-18.39-1.22-27.5-.59-14.18,.99-28.37-.71-42.51,.84-6.22-3.96-13.46-.72-20.05-2.84-3.02-.97-6.69-.63-9.93-.08-11.82,2.01-23.82,1.68-35.48,.53-11.51-1.13-22.78,.33-34.01,.89-8.28,.42-16.76,.02-25.03,1.49"/>
</svg>